<svg xmlns="http://www.w3.org/2000/svg" viewBox="0 0 64 64">
  <circle cx="32" cy="32" r="32" fill="#fff" />
  <path
    fill="#9535a7"
    d="M18 34a4 4 0 1 1 0-8 4 4 0 0 1 0 8Zm31-9c0-4.97-4.48-8-10.8-8-4.72 0-8.86 1.73-11.06 4.34l5.2 4c1.34-1.57 3.25-2.34 5.7-2.34 2.4 0 3.71.88 3.71 2.1 0 1.14-.88 1.83-4 2.36-7.52 1.2-10.54 3.7-10.54 8.46 0 5 4.36 8.42 10.94 8.42 4.72 0 8.46-1.57 10.9-4.46l-5.23-3.95c-1.4 1.6-3.28 2.34-5.7 2.34-2.4 0-3.74-.88-3.74-2.19 0-1.18 1-1.82 4.9-2.42 6.8-1.08 9.64-3.77 9.64-8.66Z"
  />
</svg>
